<?xml version="1.0" encoding="utf-8"?>
<svg viewBox="0 0 48 48" width="48px" height="48px" fill-rule="evenodd" clip-rule="evenodd" xmlns="http://www.w3.org/2000/svg">
  <path fill="#00549d" fill-rule="evenodd" d="M 22.903 3.286 C 23.582 2.905 24.418 2.905 25.096 3.286 C 28.451 5.169 38.547 10.837 41.903 12.72 C 42.582 13.1 43 13.804 43 14.566 C 43 18.332 43 29.667 43 33.433 C 43 34.195 42.582 34.899 41.903 35.28 C 38.548 37.163 28.452 42.831 25.096 44.714 C 24.417 45.095 23.581 45.095 22.903 44.714 C 19.548 42.831 9.452 37.163 6.096 35.28 C 5.418 34.899 5 34.196 5 33.434 C 5 29.668 5 18.333 5 14.567 C 5 13.805 5.418 13.101 6.097 12.72 C 9.451 10.837 19.549 5.169 22.903 3.286 Z M 24 10 C 16.268 10 10 16.268 10 24 C 10 31.732 16.268 38 24 38 C 31.396 38 37.452 32.265 37.965 25 L 38 25 L 38 27 L 40 27 L 40 25 L 42 25 L 42 23 L 40 23 L 40 21 L 38 21 L 38 23 L 37.965 23 C 37.452 15.735 31.396 10 24 10 Z M 24 31 C 20.134 31 17 27.866 17 24 C 17 20.134 20.134 17 24 17 C 27.526 17 30.444 19.608 30.929 23 L 29 23 L 29 25 L 30.929 25 C 30.444 28.392 27.526 31 24 31 Z" clip-rule="evenodd"/>
  <path fill="#0086d4" fill-rule="evenodd" d="M 5.304 34.404 C 5.038 34.048 5 33.71 5 33.255 C 5 29.511 5 18.241 5 14.496 C 5 13.738 5.417 13.038 6.094 12.66 C 9.437 10.788 19.499 5.153 22.842 3.28 C 23.519 2.901 24.436 2.909 25.113 3.288 C 28.456 5.16 38.484 10.747 41.827 12.619 C 42.097 12.771 42.303 12.954 42.487 13.195 L 36.049 16.867 C 33.61 12.756 29.127 10 24 10 C 16.268 10 10 16.268 10 24 C 10 26.444 10.626 28.741 11.727 30.741 Z M 17 24 C 17 20.134 20.134 17 24 17 C 26.523 17 28.734 18.335 29.966 20.337 L 17.81 27.271 C 17.293 26.295 17 25.182 17 24 Z" clip-rule="evenodd"/>
  <path fill="#0075c0" fill-rule="evenodd" d="M 42.485 13.205 C 43.001 13.688 42.991 14.416 42.991 14.989 C 42.991 18.784 42.959 29.578 43 33.373 C 43.004 33.769 42.873 34.186 42.677 34.5 L 23.593 24 Z M 29 25 L 31 25 L 31 27 L 33 27 L 33 25 L 35 25 L 35 23 L 33 23 L 33 21 L 31 21 L 31 23 L 29 23 Z M 36 25 L 38 25 L 38 27 L 40 27 L 40 25 L 42 25 L 42 23 L 40 23 L 40 21 L 38 21 L 38 23 L 36 23 Z" clip-rule="evenodd"/>
</svg>