<?xml version="1.0" encoding="utf-8"?>
<svg viewBox="0 0 491.87 463.71" xmlns="http://www.w3.org/2000/svg">
  <defs>
    <style>.a{fill:#fff;}.b{fill:#478cbf;}.c{fill:#414042;}</style>
  </defs>
  <title>godot-game-engine-icon</title>
  <path class="b" d="M 29.76 185.78 C 19.049 172.042 9.114 157.716 0 142.87 C 12.46 121.65 27.73 102.69 44.06 85.11 C 59.128 92.722 73.733 101.217 87.8 110.55 C 94.76 103.64 102.61 98 110.29 92.08 C 117.85 86.01 126.35 81.56 134.44 76.38 C 132.102 58.488 130.743 40.481 130.37 22.44 C 151.19 12 173.43 5 195.89 0 C 204.904 15.316 213.028 31.139 220.22 47.39 C 228.666 46.066 237.201 45.398 245.75 45.39 L 246.07 45.39 C 254.619 45.398 263.154 46.066 271.6 47.39 C 278.802 31.144 286.926 15.321 295.93 0 C 318.41 5 340.64 12 361.48 22.44 C 361.097 40.48 359.739 58.487 357.41 76.38 C 365.49 81.56 374 86 381.52 92.08 C 389.22 97.99 397 103.64 404 110.55 C 418.068 101.23 432.666 92.735 447.72 85.11 C 464.05 102.67 479.33 121.65 491.8 142.87 C 482.683 157.714 472.748 172.039 462.04 185.78 L 461.74 185.78 L 461.74 316.06 C 461.504 316.045 461.266 316.045 461.03 316.06 L 381.21 323.75 C 377.017 324.162 373.738 327.546 373.46 331.75 L 371 367 L 301.37 372 L 296.57 339.46 C 295.95 335.244 292.332 332.119 288.07 332.12 L 203.81 332.12 C 199.548 332.119 195.93 335.244 195.31 339.46 L 190.51 372 L 120.86 367 L 118.4 331.69 C 118.122 327.486 114.843 324.102 110.65 323.69 L 30.78 316 C 30.544 315.985 30.306 315.985 30.07 316 L 30.07 185.77 Z M 246 291.07 C 254.56 291.07 261.51 284.77 261.51 277 L 261.51 232.73 C 261.51 224.96 254.55 218.65 246 218.65 C 237.45 218.65 230.51 224.96 230.51 232.73 L 230.51 277.03 C 230.51 284.8 237.45 291.1 246 291.1 Z M 311 238.63 C 310.969 275.68 351.058 298.87 383.16 280.372 C 415.262 261.873 415.301 215.56 383.23 197.008 C 375.908 192.773 367.599 190.542 359.14 190.54 C 332.57 190.534 311.022 212.06 311 238.63 Z M 132.74 190.54 C 124.28 190.538 115.968 192.767 108.644 197.002 C 76.576 215.543 76.604 261.847 108.696 280.348 C 140.788 298.85 180.873 275.673 180.85 238.63 C 180.833 212.07 159.3 190.546 132.74 190.54 Z"/>
  <path class="b" d="M390.15,340.07l-2.47,35.43a8.59,8.59,0,0,1-8,8l-85.06,6.07c-.21,0-.42,0-.62,0a8.59,8.59,0,0,1-8.5-7.34l-4.88-33.07H211.24l-4.87,33.07a8.6,8.6,0,0,1-9.12,7.32l-85.07-6.07a8.6,8.6,0,0,1-8-8l-2.47-35.43-71.81-6.93c0,7.72.13,16.17.13,17.86,0,75.82,96.19,112.29,215.72,112.71h.29c119.53-.42,215.7-36.87,215.7-112.71,0-1.72.1-10.14.14-17.86Z"/>
  <path class="c" d="M169.34,241.36a31.95,31.95,0,1,1-31.94-31.94,31.93,31.93,0,0,1,31.94,31.94"/>
  <path class="c" d="M322.66,241.36a31.94,31.94,0,1,0,31.93-31.94,31.92,31.92,0,0,0-31.93,31.94"/>
</svg>