<?xml version="1.0" encoding="utf-8"?>
<svg viewBox="0 0 48 48" width="48px" height="48px" xmlns="http://www.w3.org/2000/svg">
  <path fill="#E65100" d="M 38 39 L 24 43 L 10 39 L 7 5 L 41 5 Z M 19.9 29.5 L 19.7 27 L 15.7 27 L 16.1 32.5 L 24 35.1 L 31.9 32.5 L 32.6 21 L 19.4 21 L 19.1 17 L 32.9 17 L 33.2 13 L 14.9 13 L 15.6 25 L 28.4 25 L 28.1 29.5 L 24 30.9 Z"/>
  <path fill="#FF6D00" d="M 37.701 8 L 35.201 36.7 L 24.001 39.9 L 24.001 35.1 L 31.901 32.5 L 32.601 21 L 24.001 21 L 24.001 17 L 32.901 17 L 33.201 13 L 24.001 13 L 24.001 8 L 37.701 8 Z M 28.401 25 L 28.101 29.5 L 24.001 30.9 L 24.001 25 L 28.401 25 Z"/>
</svg>