<!-- <?xml version="1.0" encoding="utf-8"?> -->
<svg viewBox="0 0 48 48" width="48px" height="48px" xmlns="http://www.w3.org/2000/svg">
  <path fill="#ffd600" d="M 6 42 L 6 6 L 42 6 L 42 42 Z M 27 34.632 C 27.948 36.495 29.651 38 32.65 38 C 35.716 38 38 36.415 38 33.523 C 38 30.839 36.452 29.645 33.707 28.476 L 32.9 28.132 C 31.515 27.535 30.915 27.145 30.915 26.181 C 30.915 25.401 31.514 24.804 32.46 24.804 C 33.387 24.804 33.985 25.193 34.538 26.181 L 37.052 24.574 C 35.988 22.712 34.513 22.001 32.46 22.001 C 29.577 22.001 27.732 23.835 27.732 26.245 C 27.732 28.86 29.281 30.098 31.61 31.086 L 32.417 31.43 C 33.889 32.071 34.615 32.462 34.615 33.563 C 34.615 34.483 33.913 35.148 32.575 35.148 C 30.982 35.148 30.23 34.071 29.538 32.947 Z M 15.333 34.632 C 16.091 36.254 17.951 38 20.528 38 C 23.38 38 25.333 36.468 25.333 33.101 L 25.333 22 L 22 22 L 22 32.589 C 22 34.214 21.391 34.632 20.333 34.632 C 19.227 34.632 18.458 33.935 17.952 33.029 Z"/>
</svg>