<?xml version="1.0" encoding="utf-8"?>
<svg width="32px" height="32px" viewBox="0 0 32 32" xmlns="http://www.w3.org/2000/svg" xmlns:bx="https://boxy-svg.com">
  <title>file_type_typescript_official</title>
  <path d="M 5.125 4 L 26.875 4 C 27.497 4 28 4.503 28 5.125 L 28 26.875 C 28 27.497 27.497 28 26.875 28 L 5.125 28 C 4.503 28 4 27.497 4 26.875 L 4 5.125 C 4 4.503 4.503 4 5.125 4 Z M 17.924 22.651 L 17.924 25.28 C 18.402 25.516 18.912 25.682 19.436 25.773 C 20.043 25.885 20.659 25.94 21.276 25.938 C 21.877 25.94 22.477 25.88 23.065 25.757 C 23.593 25.65 24.098 25.447 24.553 25.157 C 24.974 24.884 25.322 24.511 25.565 24.072 C 25.999 23.161 26.056 22.116 25.724 21.163 C 25.584 20.806 25.375 20.481 25.11 20.205 C 24.824 19.912 24.501 19.659 24.147 19.453 C 23.74 19.215 23.317 19.005 22.881 18.824 C 22.538 18.682 22.23 18.544 21.955 18.409 C 21.712 18.293 21.479 18.156 21.259 17.999 C 21.086 17.878 20.936 17.728 20.816 17.555 C 20.713 17.398 20.659 17.214 20.661 17.025 C 20.659 16.852 20.707 16.682 20.8 16.536 C 20.901 16.383 21.036 16.255 21.193 16.162 C 21.386 16.048 21.596 15.967 21.816 15.919 C 22.085 15.859 22.36 15.831 22.635 15.834 C 22.867 15.835 23.098 15.851 23.328 15.883 C 23.575 15.917 23.821 15.967 24.061 16.035 C 24.307 16.103 24.546 16.189 24.778 16.292 C 25.003 16.393 25.219 16.513 25.422 16.654 L 25.422 14.2 C 24.999 14.041 24.561 13.925 24.115 13.857 C 23.575 13.778 23.031 13.741 22.486 13.747 C 21.89 13.743 21.296 13.811 20.717 13.948 C 20.193 14.068 19.695 14.281 19.246 14.576 C 18.829 14.854 18.485 15.228 18.242 15.666 C 17.985 16.153 17.858 16.697 17.873 17.247 C 17.854 17.975 18.093 18.685 18.549 19.253 C 19.108 19.882 19.813 20.365 20.602 20.658 C 20.962 20.806 21.298 20.952 21.609 21.094 C 21.89 21.219 22.16 21.367 22.417 21.537 C 22.623 21.672 22.805 21.841 22.953 22.039 C 23.083 22.218 23.153 22.434 23.15 22.655 C 23.151 22.82 23.109 22.984 23.027 23.128 C 22.936 23.283 22.807 23.413 22.654 23.506 C 22.462 23.623 22.251 23.707 22.032 23.756 C 21.745 23.821 21.452 23.851 21.159 23.846 C 20.583 23.845 20.012 23.743 19.471 23.546 C 18.907 23.342 18.383 23.039 17.924 22.651 Z M 13.507 16.104 L 16.935 16.104 L 16.935 13.938 L 7.375 13.938 L 7.375 16.104 L 10.789 16.104 L 10.789 25.75 L 13.507 25.75 L 13.507 16.104 Z" style="fill:#3178c6" bx:origin="0.5 0.416667"/>
</svg>